<?xml version="1.0" standalone="no"?><!DOCTYPE svg PUBLIC "-//W3C//DTD SVG 1.1//EN" "http://www.w3.org/Graphics/SVG/1.1/DTD/svg11.dtd"><svg t="1707408464177" class="icon" viewBox="0 0 1024 1024" version="1.1" xmlns="http://www.w3.org/2000/svg" p-id="24912" width="32" height="32" xmlns:xlink="http://www.w3.org/1999/xlink"><path d="M127.995 0a128.114996 128.114996 0 0 0-127.995 127.995v767.970001h42.738331v-767.970001A85.336667 85.336667 0 0 1 127.995 42.698332h341.386665V0z" fill="#fdba5c" p-id="24913"></path><path d="M131.994844 810.668333h465.381821v-42.698332H131.994844a130.274911 130.274911 0 0 0-129.294949 101.796024A128.094996 128.094996 0 0 0 127.995 1023.960002h469.381665v-42.638335H127.995a85.456662 85.456662 0 0 1-83.45674-103.215968A87.456584 87.456584 0 0 1 131.994844 810.668333z" fill="#fdba5c" p-id="24914"></path><path d="M128.074997 21.379165h42.658334v767.970001H128.074997zM277.389164 127.995A21.339166 21.339166 0 0 0 255.99 149.354166v106.635834h42.658334V170.693332H383.985001V127.995zM298.728331 383.985001v-63.997501H255.99v85.336667a21.339166 21.339166 0 0 0 21.339167 21.339166h85.336666v-42.678332h-63.9975z" fill="#fdba5c" p-id="24915"></path><path d="M256.069997 298.688332h106.655834v42.658334h-106.655834zM256.069997 490.680833h42.658334v42.658333h-42.658334zM341.386665 490.680833h42.658333v42.658333H341.386665zM277.389164 874.665833h319.987501v42.658334h-319.987501zM192.072497 874.665833h42.658334v42.658334H192.072497zM704.052498 576.017499h42.658334v127.995001h-42.658334z" fill="#fdba5c" p-id="24916"></path><path d="M725.371665 0A298.648334 298.648334 0 1 0 1023.960002 298.688332 298.648334 298.648334 0 0 0 725.371665 0z m0 554.638334a255.99 255.99 0 1 1 255.990001-255.99 255.99 255.99 0 0 1-255.990001 256.029999zM725.371665 682.673333a63.9975 63.9975 0 0 0-63.9975 63.9975v213.291668a63.9975 63.9975 0 0 0 127.995 0V746.670833a63.9975 63.9975 0 0 0-63.9975-63.9975z m21.339167 277.289168a21.369165 21.369165 0 0 1-42.738331 0V746.670833a21.339166 21.339166 0 0 1 42.658334 0z" fill="#fdba5c" p-id="24917"></path><path d="M704.052498 277.369165h42.658334V320.027499h-42.658334zM810.708332 277.369165h42.658333V320.027499h-42.658333zM597.376665 277.369165h42.658334V320.027499H597.376665z" fill="#fdba5c" p-id="24918"></path></svg>