<?xml version="1.0" standalone="no"?><!DOCTYPE svg PUBLIC "-//W3C//DTD SVG 1.1//EN" "http://www.w3.org/Graphics/SVG/1.1/DTD/svg11.dtd"><svg t="1707407797437" class="icon" viewBox="0 0 1024 1024" version="1.1" xmlns="http://www.w3.org/2000/svg" p-id="14468" width="32" height="32" xmlns:xlink="http://www.w3.org/1999/xlink"><path d="M966.34 951.41c-0.237 0-0.474 0.002-0.712 0.008H56.915l-0.317 0.011c-16.5 0.586-29.588 14.507-29.177 31.031 0.407 16.29 13.973 29.54 30.24 29.54 0.233 0 0.466-0.002 0.7-0.008h908.725l0.317-0.011c16.5-0.586 29.59-14.509 29.176-31.036-0.405-16.285-13.97-29.536-30.239-29.536zM749.31 510.42c4.566 2.549 9.517 3.84 14.72 3.84 10.803 0 20.54-5.548 26.044-14.843l44.548-75.25v420.727H107.326l-0.318 0.012c-16.5 0.588-29.589 14.509-29.175 31.032 0.404 16.286 13.97 29.538 30.239 29.538 0.236 0 0.471-0.003 0.709-0.009h807.9l0.331-0.012c10.634-0.394 20.394-6.455 25.472-15.815 5.14-9.476 4.84-21.079-0.784-30.28-5.462-8.93-15.348-14.475-25.803-14.475-0.24 0-0.48 0.003-0.721 0.01H895.08V324.195l-0.124-1.049a41.82 41.82 0 0 0-0.1-0.774l96.798-163.58 0.09-0.15 0.085-0.153 0.473-0.836 0.206-0.363 0.188-0.373A30.22 30.22 0 0 0 980.44 116.8c-4.565-2.55-9.518-3.843-14.72-3.843-10.801 0-20.536 5.549-26.041 14.843L738.1 468.418l-0.093 0.158-0.09 0.16-0.472 0.835-0.2 0.355-0.184 0.364a30.222 30.222 0 0 0 12.25 40.13z" fill="#fdba5c" p-id="14469"></path><path d="M487.57 259.641l0.243-0.466 0.387-0.74 0.073-0.14 0.07-0.143c7.215-14.444 1.862-31.978-12.185-39.918a30.26 30.26 0 0 0-14.853-3.916c-9.696 0-18.867 4.689-24.534 12.54l-0.456 0.632-0.399 0.669-0.299 0.5-151.064 252.116-0.21 0.351-0.195 0.36-0.516 0.959-0.088 0.163-0.084 0.165c-4.755 9.284-4.355 20.594 1.045 29.515 5.439 8.989 15.342 14.582 25.844 14.592H459L322.264 758.545l-0.241 0.408-0.219 0.42-0.36 0.69-0.145 0.28-0.136 0.285c-6.868 14.404-1.33 31.76 12.609 39.515 4.552 2.533 9.49 3.817 14.677 3.817 10.385 0 19.92-5.223 25.506-13.973l0.17-0.265 0.159-0.27 163.71-277.423 0.046-0.078 0.045-0.077 0.531-0.921 0.322-0.559 0.281-0.58c4.45-9.186 3.913-20.303-1.402-29.014-5.458-8.941-15.35-14.494-25.816-14.494H363.776L487.3 260.092l0.27-0.45z" fill="#fdba5c" p-id="14470"></path><path d="M57.66 741.42c0.232 0 0.464-0.003 0.697-0.008h113.401l0.304-0.01 1.028-0.036 0.285-0.01 0.285-0.018c9.593-0.633 18.398-5.86 23.551-13.98l88.218-138.81 0.594-0.934 0.19-0.298 0.176-0.304c8.302-14.258 3.551-32.757-10.589-41.24a30.21 30.21 0 0 0-15.526-4.312h-0.004c-9.498 0-18.249 4.311-24.008 11.827l-0.487 0.636-0.428 0.676-0.952 1.503-79.304 124.739H56.913l-0.318 0.011c-16.498 0.587-29.586 14.508-29.174 31.032 0.406 16.287 13.972 29.536 30.239 29.536zM550.155 278.545l-0.196-0.288-0.555-0.816-0.1-0.148-0.104-0.146a30.316 30.316 0 0 0-24.682-12.747 30.275 30.275 0 0 0-14.287 3.603l-0.523 0.28-0.503 0.315-0.647 0.405c-6.843 4.281-11.617 10.984-13.435 18.867-1.814 7.88-0.457 15.997 3.821 22.858l62.917 100.8 0.138 0.219 0.143 0.216 0.583 0.877 0.203 0.303 0.214 0.296c5.673 7.816 14.823 12.483 24.475 12.483H689.83l0.319-0.011c16.498-0.59 29.585-14.51 29.172-31.032-0.408-16.288-13.973-29.539-30.24-29.539-0.232 0-0.464 0.003-0.699 0.008h-84.003L550.34 278.84l-0.184-0.295zM143.14 408.45a30.158 30.158 0 0 0 16.086 4.653c10 0 19.338-4.926 24.983-13.177l0.062-0.09 0.061-0.093 66.62-100.016h111.205l0.32-0.011c16.495-0.59 29.582-14.51 29.173-31.032-0.407-16.29-13.973-29.539-30.241-29.539-0.234 0-0.467 0.003-0.7 0.008H232.96l-0.766 0.066c-9.117 0.786-17.575 5.811-22.628 13.443l-75.543 113.467-0.102 0.154-0.099 0.154-0.466 0.732-0.282 0.443-0.256 0.46c-7.832 14.064-3.299 31.801 10.32 40.379zM474.192 198.771c51.427 0 93.267-41.893 93.267-93.386S525.619 12 474.192 12c-51.428 0-93.268 41.893-93.268 93.385s41.84 93.386 93.268 93.386z m0-133.197c21.924 0 39.76 17.86 39.76 39.811s-17.836 39.812-39.76 39.812c-21.925 0-39.762-17.86-39.762-39.812s17.837-39.811 39.761-39.811z" fill="#fdba5c" p-id="14471"></path></svg>