<?xml version="1.0" standalone="no"?><!DOCTYPE svg PUBLIC "-//W3C//DTD SVG 1.1//EN" "http://www.w3.org/Graphics/SVG/1.1/DTD/svg11.dtd"><svg t="1704129340924" class="icon" viewBox="0 0 1024 1024" version="1.1" xmlns="http://www.w3.org/2000/svg" p-id="7490" width="50" height="50" xmlns:xlink="http://www.w3.org/1999/xlink"><path d="M1024 503.617014c0-28.474818-10.88877-55.218366-31.026161-75.355758L697.67859 132.829329a56.949635 56.949635 0 0 0-80.549563 0 57.200214 57.200214 0 0 0 0 80.777363l240.874176 240.783057H56.585158C25.103399 454.412529 0 480.222104 0 511.726642v0.637836c0 31.481758 25.103399 57.473572 56.585158 57.473571h801.440825L617.197366 810.484428a57.040755 57.040755 0 0 0 80.595124 80.640683l295.181349-295.454707a105.539064 105.539064 0 0 0 31.026161-75.378537v-16.674853z" p-id="7491" fill="#007bff"></path></svg>