<?xml version="1.0" standalone="no"?><!DOCTYPE svg PUBLIC "-//W3C//DTD SVG 1.1//EN" "http://www.w3.org/Graphics/SVG/1.1/DTD/svg11.dtd"><svg t="1703945415377" class="icon" viewBox="0 0 1024 1024" version="1.1" xmlns="http://www.w3.org/2000/svg" p-id="13825" width="60" height="60" xmlns:xlink="http://www.w3.org/1999/xlink"><path d="M512 0C229.257846 0 0 229.257846 0 512s229.257846 512 512 512 512-229.257846 512-512S794.742154 0 512 0zM386.875077 725.385846H283.017846V390.380308h103.857231v335.005538zM334.178462 350.641231a67.820308 67.820308 0 1 1 3.899076-0.708923c-1.378462 0-2.638769-0.118154-4.01723-0.236308l0.118154 0.945231z m430.985846 374.744615H661.267692V540.356923c0-42.614154-14.848-71.207385-52.578461-71.207385a56.832 56.832 0 0 0-53.169231 38.636308 68.608 68.608 0 0 0 0 26.387692l-0.078769 190.779077h-106.653539V390.380308h90.308923l5.001847 46.198154a120.083692 120.083692 0 0 1 103.305846-53.956924c71.010462 0 119.335385 45.489231 119.335384 142.178462-0.118154 0-1.575385 200.585846-1.575384 200.585846z" fill="#FFDB70" p-id="13826"></path></svg>