<?xml version="1.0" standalone="no"?><!DOCTYPE svg PUBLIC "-//W3C//DTD SVG 1.1//EN" "http://www.w3.org/Graphics/SVG/1.1/DTD/svg11.dtd"><svg t="1703945789900" class="icon" viewBox="0 0 1024 1024" version="1.1" xmlns="http://www.w3.org/2000/svg" p-id="7318" width="60" height="60" xmlns:xlink="http://www.w3.org/1999/xlink"><path d="M54.857143 310.747429C54.857143 169.417143 169.508571 54.857143 310.747429 54.857143h402.505142C854.582857 54.857143 969.142857 169.508571 969.142857 310.747429v402.505142C969.142857 854.582857 854.491429 969.142857 713.252571 969.142857H310.747429C169.417143 969.142857 54.857143 854.491429 54.857143 713.252571V310.747429zM777.142857 310.857143a64 64 0 1 0 0-128 64 64 0 0 0 0 128zM676.571429 512a164.571429 164.571429 0 1 1-329.142858 0 164.571429 164.571429 0 0 1 329.142858 0z m-402.285715 0c0 131.291429 106.422857 237.714286 237.714286 237.714286s237.714286-106.422857 237.714286-237.714286-106.422857-237.714286-237.714286-237.714286-237.714286 106.422857-237.714286 237.714286z" p-id="7319" fill="#FFDB70"></path></svg>